<svg width="149" height="30" viewBox="0 0 149 30" fill="none" xmlns="http://www.w3.org/2000/svg">
<path fill-rule="evenodd" clip-rule="evenodd" d="M8.0027 0.449463C3.58293 0.449463 0 4.0324 0 8.45216V21.5475C0 25.9673 3.58293 29.5502 8.0027 29.5502H21.098C25.5178 29.5502 29.1007 25.9672 29.1007 21.5475V8.45216C29.1007 4.03239 25.5178 0.449463 21.098 0.449463H8.0027ZM10.8977 8.30145C11.3108 8.51169 11.7324 8.83617 11.9528 9.30457C12.3502 10.149 14.1881 14.1684 15.0574 16.0726C17.1065 19.736 19.8385 14.5203 16.8581 12.0987H15.9267C15.1723 12.0987 14.5607 11.4871 14.5607 10.7327V9.49085C14.5607 8.73641 15.1723 8.12483 15.9267 8.12483H22.881C23.6354 8.12483 24.247 8.73641 24.247 9.49085V10.7327C24.247 11.4871 23.6354 12.0987 22.881 12.0987H21.9919L15.8566 24.113C15.3517 25.1017 13.9407 25.1071 13.4283 24.1223L7.17176 12.0987H6.24039C5.48595 12.0987 4.87436 11.4871 4.87436 10.7327V9.49085C4.87436 8.79196 5.39922 8.21565 6.07627 8.13458L6.08278 8.12483H10.0373C10.3341 8.12483 10.6332 8.16681 10.8977 8.30145Z" fill="#FAFAF9"/>
<path d="M40.8938 20.4998L37.3142 9.80959H39.5494L42.2544 18.7505H42.4487L45.1699 9.80959H47.3727L43.7769 20.4998H40.8938ZM48.8797 20.4998V12.0286H50.9205V20.4998H48.8797ZM49.9001 10.7004C49.4898 10.7004 49.1712 10.614 48.9445 10.4413C48.7285 10.2577 48.6205 9.99856 48.6205 9.66381C48.6205 9.32907 48.7285 9.07531 48.9445 8.90254C49.1712 8.71897 49.4898 8.62719 49.9001 8.62719C50.332 8.62719 50.656 8.71358 50.8719 8.88635C51.0879 9.05912 51.1959 9.31827 51.1959 9.66381C51.1959 9.99856 51.0825 10.2577 50.8557 10.4413C50.6398 10.614 50.3212 10.7004 49.9001 10.7004ZM57.02 20.7103C56.2858 20.7103 55.6487 20.6023 55.1088 20.3864C54.5797 20.1704 54.1369 19.8681 53.7806 19.4793C53.4351 19.0798 53.1759 18.6155 53.0031 18.0864C52.8304 17.5573 52.744 16.985 52.744 16.3695C52.744 15.7108 52.8304 15.1061 53.0031 14.5554C53.1867 14.0047 53.4567 13.5242 53.813 13.1138C54.1693 12.7035 54.6067 12.3849 55.125 12.1582C55.6541 11.9314 56.2588 11.818 56.9391 11.818C57.6193 11.818 58.2078 11.9314 58.7046 12.1582C59.2121 12.3849 59.6224 12.7035 59.9355 13.1138C60.2487 13.5134 60.4593 13.9831 60.5672 14.523L58.656 15.1223C58.6344 14.7983 58.548 14.5122 58.3968 14.2638C58.2456 14.0047 58.0405 13.8049 57.7813 13.6645C57.5222 13.5242 57.2144 13.454 56.8581 13.454C56.5125 13.454 56.2102 13.5242 55.951 13.6645C55.7027 13.7941 55.4921 13.9831 55.3193 14.2314C55.1574 14.4798 55.0278 14.7821 54.9306 15.1385C54.8442 15.484 54.801 15.8727 54.801 16.3047C54.801 16.8986 54.882 17.4061 55.044 17.8272C55.206 18.2483 55.4543 18.5777 55.7891 18.8152C56.1238 19.042 56.5395 19.1554 57.0362 19.1554C57.479 19.1554 57.8353 19.0744 58.1053 18.9124C58.386 18.7397 58.5966 18.5183 58.737 18.2483C58.8881 17.9784 58.9799 17.6814 59.0123 17.3575L60.8264 17.7624C60.7616 18.2051 60.6374 18.6047 60.4539 18.961C60.2703 19.3174 60.0165 19.6305 59.6926 19.9005C59.3794 20.1596 59.0015 20.3594 58.5588 20.4998C58.1161 20.6401 57.6031 20.7103 57.02 20.7103ZM65.2413 20.6941C64.345 20.6941 63.6863 20.4566 63.2652 19.9814C62.8441 19.4955 62.6335 18.7451 62.6335 17.73V13.6645H61.3863L61.4187 12.0448H62.2448C62.5579 12.0448 62.7901 11.9962 62.9413 11.899C63.0924 11.8018 63.1842 11.6291 63.2166 11.3807L63.411 10.1497H64.5934V12.0286H66.8286V13.7293H64.5934V17.649C64.5934 18.0486 64.6852 18.3401 64.8687 18.5237C65.0631 18.7073 65.3493 18.799 65.7272 18.799C65.9324 18.799 66.1321 18.7775 66.3265 18.7343C66.5317 18.6803 66.7206 18.5939 66.8934 18.4751V20.4188C66.5586 20.5268 66.2509 20.5969 65.9702 20.6293C65.7002 20.6725 65.4572 20.6941 65.2413 20.6941ZM72.2513 20.7103C71.4198 20.7103 70.6855 20.5429 70.0484 20.2082C69.4113 19.8627 68.9092 19.3606 68.5421 18.7019C68.1858 18.0324 68.0076 17.2117 68.0076 16.2399C68.0076 15.2465 68.1912 14.4258 68.5583 13.7779C68.9362 13.1192 69.4437 12.6279 70.0808 12.304C70.7179 11.98 71.436 11.818 72.2351 11.818C73.0665 11.818 73.8008 11.9854 74.4379 12.3202C75.075 12.6549 75.5771 13.157 75.9442 13.8265C76.3114 14.4852 76.4949 15.3058 76.4949 16.2885C76.4949 17.2819 76.3114 18.108 75.9442 18.7667C75.5771 19.4253 75.0696 19.9167 74.4217 20.2406C73.7846 20.5537 73.0611 20.7103 72.2513 20.7103ZM72.3322 19.1554C72.7858 19.1554 73.1691 19.0528 73.4822 18.8476C73.7954 18.6317 74.033 18.3131 74.1949 17.892C74.3677 17.4709 74.4541 16.9688 74.4541 16.3857C74.4541 15.7702 74.3623 15.2465 74.1787 14.8145C74.006 14.3718 73.7522 14.0317 73.4175 13.7941C73.0935 13.5565 72.6832 13.4378 72.1865 13.4378C71.7545 13.4378 71.3766 13.5457 71.0527 13.7617C70.7287 13.9669 70.4804 14.2746 70.3076 14.685C70.1456 15.0953 70.0646 15.6028 70.0646 16.2075C70.0646 17.1577 70.2644 17.8866 70.6639 18.3941C71.0743 18.9016 71.6304 19.1554 72.3322 19.1554ZM78.332 20.4998V16.2561V12.0286H80.049L80.0166 14.9441H80.3081C80.4053 14.253 80.5565 13.6807 80.7616 13.2272C80.9668 12.7629 81.2529 12.4173 81.6201 12.1906C81.9872 11.953 82.4407 11.8342 82.9807 11.8342C83.0886 11.8342 83.202 11.8396 83.3208 11.8504C83.4504 11.8612 83.5907 11.8882 83.7419 11.9314L83.6609 14.0857C83.4882 14.0209 83.31 13.9777 83.1264 13.9561C82.9537 13.9237 82.7917 13.9075 82.6405 13.9075C82.2194 13.9075 81.8522 14.0155 81.5391 14.2314C81.2368 14.4474 80.9884 14.7551 80.794 15.1547C80.6105 15.5434 80.4701 16.0077 80.3729 16.5476V20.4998H78.332ZM89.1381 20.4998V9.80959H93.398C94.0351 9.80959 94.6074 9.86358 95.1149 9.97156C95.6224 10.0795 96.0543 10.2523 96.4107 10.4899C96.7778 10.7166 97.0586 11.0082 97.2529 11.3645C97.4473 11.7209 97.5445 12.1474 97.5445 12.6441C97.5445 13.0652 97.4581 13.4324 97.2853 13.7455C97.1234 14.0479 96.8588 14.3016 96.4917 14.5068C96.1245 14.7011 95.644 14.8361 95.0501 14.9117V15.1547C96.0651 15.2303 96.8048 15.4894 97.2691 15.9321C97.7443 16.3641 97.9818 16.9472 97.9818 17.6814C97.9818 18.2969 97.8252 18.8152 97.5121 19.2364C97.2097 19.6467 96.7454 19.9598 96.1191 20.1758C95.5036 20.3918 94.7262 20.4998 93.7867 20.4998H89.1381ZM91.0818 18.8314H93.8191C94.5534 18.8314 95.0933 18.7181 95.4388 18.4913C95.7952 18.2537 95.9734 17.892 95.9734 17.4061C95.9734 16.8446 95.7412 16.4235 95.2769 16.1427C94.8234 15.862 94.1269 15.7216 93.1874 15.7216H91.0818V18.8314ZM91.0818 14.3934H92.8635C93.7705 14.3934 94.44 14.2692 94.8719 14.0209C95.3147 13.7725 95.536 13.3946 95.536 12.8871C95.536 12.4011 95.3417 12.0448 94.9529 11.818C94.575 11.5805 93.9919 11.4617 93.2036 11.4617H91.0818V14.3934ZM103.761 20.7103C103.081 20.7103 102.471 20.6131 101.931 20.4188C101.402 20.2244 100.954 19.9437 100.587 19.5765C100.22 19.1986 99.9389 18.7451 99.7445 18.2159C99.5502 17.6868 99.453 17.0875 99.453 16.4181C99.453 15.7486 99.5448 15.1331 99.7283 14.5716C99.9227 14.0101 100.198 13.5242 100.554 13.1138C100.911 12.7035 101.343 12.3849 101.85 12.1582C102.368 11.9314 102.957 11.818 103.616 11.818C104.231 11.818 104.782 11.9206 105.268 12.1258C105.754 12.331 106.164 12.6387 106.499 13.049C106.834 13.4486 107.082 13.9507 107.244 14.5554C107.406 15.1493 107.46 15.8404 107.406 16.6286L100.781 16.6772V15.4948L106.223 15.4462L105.511 16.1103C105.576 15.4948 105.527 14.9927 105.365 14.604C105.203 14.2044 104.971 13.9129 104.668 13.7293C104.366 13.5349 104.021 13.4378 103.632 13.4378C103.189 13.4378 102.8 13.5565 102.466 13.7941C102.131 14.0209 101.872 14.3556 101.688 14.7983C101.515 15.2303 101.429 15.7594 101.429 16.3857C101.429 17.3251 101.634 18.027 102.045 18.4913C102.466 18.9556 103.038 19.1878 103.761 19.1878C104.085 19.1878 104.355 19.15 104.571 19.0744C104.798 18.988 104.987 18.88 105.138 18.7505C105.289 18.6101 105.408 18.4535 105.495 18.2807C105.592 18.108 105.667 17.9244 105.721 17.73L107.503 18.135C107.417 18.5345 107.276 18.8908 107.082 19.204C106.887 19.5171 106.634 19.7871 106.321 20.0138C106.018 20.2406 105.657 20.4134 105.235 20.5322C104.814 20.6509 104.323 20.7103 103.761 20.7103ZM109.271 20.4998V15.3328V12.0286H110.972L110.923 14.6202H111.215C111.366 13.9831 111.566 13.4594 111.814 13.049C112.073 12.6387 112.403 12.331 112.802 12.1258C113.202 11.9206 113.666 11.818 114.195 11.818C115.156 11.818 115.885 12.1582 116.382 12.8385C116.889 13.5188 117.143 14.5716 117.143 15.9969V20.4998H115.086V16.2075C115.086 15.2896 114.946 14.6202 114.665 14.199C114.395 13.7671 113.99 13.5511 113.45 13.5511C112.997 13.5511 112.613 13.6969 112.3 13.9885C111.987 14.2692 111.744 14.6472 111.571 15.1223C111.409 15.5866 111.323 16.0995 111.312 16.661V20.4998H109.271ZM121.26 20.7103C120.795 20.7103 120.379 20.6239 120.012 20.4512C119.645 20.2676 119.354 19.9976 119.138 19.6413C118.933 19.285 118.83 18.8422 118.83 18.3131C118.83 17.8704 118.911 17.4925 119.073 17.1793C119.246 16.8662 119.499 16.6124 119.834 16.4181C120.169 16.2129 120.585 16.0455 121.081 15.9159C121.578 15.7756 122.161 15.6568 122.831 15.5596C123.198 15.5056 123.495 15.4516 123.721 15.3976C123.959 15.3436 124.132 15.2627 124.24 15.1547C124.348 15.0359 124.402 14.8631 124.402 14.6364C124.402 14.3016 124.283 14.0155 124.045 13.7779C123.819 13.5296 123.446 13.4054 122.928 13.4054C122.615 13.4054 122.312 13.4594 122.021 13.5673C121.74 13.6753 121.497 13.8481 121.292 14.0857C121.087 14.3124 120.946 14.6148 120.871 14.9927L119.04 14.4258C119.159 13.9939 119.332 13.6213 119.559 13.3082C119.786 12.9842 120.066 12.7089 120.401 12.4821C120.736 12.2554 121.119 12.088 121.551 11.98C121.983 11.872 122.458 11.818 122.976 11.818C123.765 11.818 124.413 11.9476 124.92 12.2068C125.428 12.4551 125.806 12.8493 126.054 13.3892C126.302 13.9183 126.426 14.604 126.426 15.4462V17.0335C126.426 17.4007 126.432 17.784 126.443 18.1836C126.464 18.5723 126.486 18.9664 126.507 19.366C126.54 19.7547 126.578 20.1326 126.621 20.4998H124.79C124.747 20.1974 124.71 19.8735 124.677 19.5279C124.645 19.1824 124.618 18.8314 124.596 18.4751H124.337C124.186 18.8854 123.97 19.2634 123.689 19.6089C123.408 19.9437 123.063 20.2136 122.652 20.4188C122.253 20.6131 121.789 20.7103 121.26 20.7103ZM122.069 19.204C122.285 19.204 122.501 19.1662 122.717 19.0906C122.944 19.015 123.165 18.9016 123.381 18.7505C123.597 18.5993 123.797 18.4157 123.981 18.1998C124.164 17.973 124.321 17.7084 124.45 17.4061L124.418 15.9645L124.807 16.0293C124.623 16.1805 124.396 16.2993 124.126 16.3857C123.856 16.472 123.57 16.5368 123.268 16.58C122.976 16.6232 122.679 16.6772 122.377 16.742C122.086 16.796 121.821 16.8716 121.583 16.9688C121.346 17.0551 121.157 17.1847 121.017 17.3575C120.876 17.5195 120.806 17.7462 120.806 18.0378C120.806 18.4049 120.925 18.6911 121.162 18.8962C121.4 19.1014 121.702 19.204 122.069 19.204ZM128.065 20.4998V18.7505L132.568 13.9237V13.6969H128.13V12.0286H135.192V13.7455L130.624 18.6047V18.8152H135.224V20.4998H128.065ZM136.543 20.4998V18.7505L141.046 13.9237V13.6969H136.608V12.0286H143.67V13.7455L139.102 18.6047V18.8152H143.702V20.4998H136.543ZM145.414 20.4998V12.0286H147.455V20.4998H145.414ZM146.435 10.7004C146.025 10.7004 145.706 10.614 145.479 10.4413C145.263 10.2577 145.155 9.99856 145.155 9.66381C145.155 9.32907 145.263 9.07531 145.479 8.90254C145.706 8.71897 146.025 8.62719 146.435 8.62719C146.867 8.62719 147.191 8.71358 147.407 8.88635C147.623 9.05912 147.731 9.31827 147.731 9.66381C147.731 9.99856 147.617 10.2577 147.391 10.4413C147.175 10.614 146.856 10.7004 146.435 10.7004Z" fill="#FAFAF9"/>
</svg>
